<mxfile host="app.diagrams.net" modified="2022-02-24T08:39:04.403Z" agent="5.0 (Windows NT 10.0; Win64; x64) AppleWebKit/537.36 (KHTML, like Gecko) Chrome/98.0.4758.102 Safari/537.36 Edg/98.0.1108.56" etag="06hlT5qpti1F8JM1dZK1" version="16.6.2" type="github">
  <diagram id="kgpKYQtTHZ0yAKxKKP6v" name="Page-1">
    <mxGraphModel dx="782" dy="468" grid="1" gridSize="10" guides="1" tooltips="1" connect="1" arrows="1" fold="1" page="1" pageScale="1" pageWidth="850" pageHeight="1100" math="0" shadow="0">
      <root>
        <mxCell id="0" />
        <mxCell id="1" parent="0" />
        <mxCell id="K4pyvWRZGne2tPZHGTeG-19" style="edgeStyle=orthogonalEdgeStyle;rounded=0;orthogonalLoop=1;jettySize=auto;html=1;" parent="1" source="3nuBFxr9cyL0pnOWT2aG-1" edge="1">
          <mxGeometry relative="1" as="geometry">
            <mxPoint x="160" y="500" as="targetPoint" />
          </mxGeometry>
        </mxCell>
        <mxCell id="3nuBFxr9cyL0pnOWT2aG-1" value="UI" style="shape=umlLifeline;perimeter=lifelinePerimeter;container=1;collapsible=0;recursiveResize=0;rounded=0;shadow=0;strokeWidth=1;" parent="1" vertex="1">
          <mxGeometry x="110" y="80" width="100" height="360" as="geometry" />
        </mxCell>
        <mxCell id="3nuBFxr9cyL0pnOWT2aG-2" value="" style="points=[];perimeter=orthogonalPerimeter;rounded=0;shadow=0;strokeWidth=1;" parent="3nuBFxr9cyL0pnOWT2aG-1" vertex="1">
          <mxGeometry x="45" y="70" width="10" height="290" as="geometry" />
        </mxCell>
        <mxCell id="3nuBFxr9cyL0pnOWT2aG-3" value="User Enters Login Credential" style="verticalAlign=bottom;startArrow=oval;endArrow=block;startSize=8;shadow=0;strokeWidth=1;" parent="3nuBFxr9cyL0pnOWT2aG-1" target="3nuBFxr9cyL0pnOWT2aG-2" edge="1">
          <mxGeometry relative="1" as="geometry">
            <mxPoint x="-100" y="80" as="sourcePoint" />
          </mxGeometry>
        </mxCell>
        <mxCell id="K4pyvWRZGne2tPZHGTeG-13" value="list courses" style="verticalAlign=bottom;endArrow=block;shadow=0;strokeWidth=1;" parent="3nuBFxr9cyL0pnOWT2aG-1" edge="1">
          <mxGeometry relative="1" as="geometry">
            <mxPoint x="55" y="220.00000000000034" as="sourcePoint" />
            <mxPoint x="680" y="220" as="targetPoint" />
          </mxGeometry>
        </mxCell>
        <mxCell id="3nuBFxr9cyL0pnOWT2aG-5" value="Spring Security" style="shape=umlLifeline;perimeter=lifelinePerimeter;container=1;collapsible=0;recursiveResize=0;rounded=0;shadow=0;strokeWidth=1;" parent="1" vertex="1">
          <mxGeometry x="300" y="80" width="100" height="380" as="geometry" />
        </mxCell>
        <mxCell id="3nuBFxr9cyL0pnOWT2aG-6" value="" style="points=[];perimeter=orthogonalPerimeter;rounded=0;shadow=0;strokeWidth=1;" parent="3nuBFxr9cyL0pnOWT2aG-5" vertex="1">
          <mxGeometry x="45" y="80" width="10" height="280" as="geometry" />
        </mxCell>
        <mxCell id="K4pyvWRZGne2tPZHGTeG-3" value="validate username/password" style="verticalAlign=bottom;endArrow=block;shadow=0;strokeWidth=1;" parent="3nuBFxr9cyL0pnOWT2aG-5" target="K4pyvWRZGne2tPZHGTeG-1" edge="1">
          <mxGeometry relative="1" as="geometry">
            <mxPoint x="55" y="100.00000000000023" as="sourcePoint" />
            <mxPoint x="235" y="100.00000000000023" as="targetPoint" />
          </mxGeometry>
        </mxCell>
        <mxCell id="K4pyvWRZGne2tPZHGTeG-4" value="Returns success" style="verticalAlign=bottom;endArrow=block;shadow=0;strokeWidth=1;exitX=0.408;exitY=0.369;exitDx=0;exitDy=0;exitPerimeter=0;" parent="3nuBFxr9cyL0pnOWT2aG-5" source="K4pyvWRZGne2tPZHGTeG-1" edge="1">
          <mxGeometry relative="1" as="geometry">
            <mxPoint x="210" y="140" as="sourcePoint" />
            <mxPoint x="54" y="129" as="targetPoint" />
          </mxGeometry>
        </mxCell>
        <mxCell id="K4pyvWRZGne2tPZHGTeG-12" value="Return default page view" style="verticalAlign=bottom;endArrow=block;shadow=0;strokeWidth=1;exitX=0.406;exitY=0.576;exitDx=0;exitDy=0;exitPerimeter=0;" parent="3nuBFxr9cyL0pnOWT2aG-5" source="K4pyvWRZGne2tPZHGTeG-5" edge="1">
          <mxGeometry relative="1" as="geometry">
            <mxPoint x="212.19999999999982" y="190.30000000000007" as="sourcePoint" />
            <mxPoint x="-130" y="190" as="targetPoint" />
          </mxGeometry>
        </mxCell>
        <mxCell id="3nuBFxr9cyL0pnOWT2aG-8" value="calls username/password" style="verticalAlign=bottom;endArrow=block;entryX=0;entryY=0;shadow=0;strokeWidth=1;" parent="1" source="3nuBFxr9cyL0pnOWT2aG-2" target="3nuBFxr9cyL0pnOWT2aG-6" edge="1">
          <mxGeometry relative="1" as="geometry">
            <mxPoint x="275" y="160" as="sourcePoint" />
          </mxGeometry>
        </mxCell>
        <mxCell id="3nuBFxr9cyL0pnOWT2aG-9" value="callback" style="verticalAlign=bottom;endArrow=block;shadow=0;strokeWidth=1;" parent="1" source="3nuBFxr9cyL0pnOWT2aG-6" edge="1">
          <mxGeometry relative="1" as="geometry">
            <mxPoint x="240" y="200" as="sourcePoint" />
            <mxPoint x="165" y="210" as="targetPoint" />
            <Array as="points">
              <mxPoint x="280" y="210" />
            </Array>
          </mxGeometry>
        </mxCell>
        <mxCell id="K4pyvWRZGne2tPZHGTeG-17" style="edgeStyle=orthogonalEdgeStyle;rounded=0;orthogonalLoop=1;jettySize=auto;html=1;" parent="1" source="K4pyvWRZGne2tPZHGTeG-1" edge="1">
          <mxGeometry relative="1" as="geometry">
            <mxPoint x="520" y="500" as="targetPoint" />
          </mxGeometry>
        </mxCell>
        <mxCell id="K4pyvWRZGne2tPZHGTeG-1" value="LDAP" style="shape=umlLifeline;perimeter=lifelinePerimeter;container=1;collapsible=0;recursiveResize=0;rounded=0;shadow=0;strokeWidth=1;" parent="1" vertex="1">
          <mxGeometry x="470" y="80" width="100" height="350" as="geometry" />
        </mxCell>
        <mxCell id="K4pyvWRZGne2tPZHGTeG-2" value="" style="points=[];perimeter=orthogonalPerimeter;rounded=0;shadow=0;strokeWidth=1;" parent="K4pyvWRZGne2tPZHGTeG-1" vertex="1">
          <mxGeometry x="45" y="80" width="10" height="270" as="geometry" />
        </mxCell>
        <mxCell id="K4pyvWRZGne2tPZHGTeG-11" value="call default page api" style="verticalAlign=bottom;endArrow=block;shadow=0;strokeWidth=1;" parent="K4pyvWRZGne2tPZHGTeG-1" target="K4pyvWRZGne2tPZHGTeG-5" edge="1">
          <mxGeometry relative="1" as="geometry">
            <mxPoint x="-115" y="164.41000000000022" as="sourcePoint" />
            <mxPoint x="65" y="164.41000000000022" as="targetPoint" />
          </mxGeometry>
        </mxCell>
        <mxCell id="K4pyvWRZGne2tPZHGTeG-5" value="Spring MVC" style="shape=umlLifeline;perimeter=lifelinePerimeter;container=1;collapsible=0;recursiveResize=0;rounded=0;shadow=0;strokeWidth=1;" parent="1" vertex="1">
          <mxGeometry x="620" y="80" width="100" height="340" as="geometry" />
        </mxCell>
        <mxCell id="K4pyvWRZGne2tPZHGTeG-6" value="" style="points=[];perimeter=orthogonalPerimeter;rounded=0;shadow=0;strokeWidth=1;" parent="K4pyvWRZGne2tPZHGTeG-5" vertex="1">
          <mxGeometry x="45" y="80" width="10" height="260" as="geometry" />
        </mxCell>
        <mxCell id="K4pyvWRZGne2tPZHGTeG-22" value="return lists" style="verticalAlign=bottom;endArrow=block;shadow=0;strokeWidth=1;exitX=0.419;exitY=0.686;exitDx=0;exitDy=0;exitPerimeter=0;" parent="K4pyvWRZGne2tPZHGTeG-5" source="K4pyvWRZGne2tPZHGTeG-9" edge="1">
          <mxGeometry relative="1" as="geometry">
            <mxPoint x="211.79999999999995" y="240.14999999999998" as="sourcePoint" />
            <mxPoint x="55" y="240" as="targetPoint" />
          </mxGeometry>
        </mxCell>
        <mxCell id="K4pyvWRZGne2tPZHGTeG-9" value="Database" style="shape=umlLifeline;perimeter=lifelinePerimeter;container=1;collapsible=0;recursiveResize=0;rounded=0;shadow=0;strokeWidth=1;" parent="1" vertex="1">
          <mxGeometry x="750" y="80" width="100" height="350" as="geometry" />
        </mxCell>
        <mxCell id="K4pyvWRZGne2tPZHGTeG-10" value="" style="points=[];perimeter=orthogonalPerimeter;rounded=0;shadow=0;strokeWidth=1;" parent="K4pyvWRZGne2tPZHGTeG-9" vertex="1">
          <mxGeometry x="45" y="80" width="10" height="270" as="geometry" />
        </mxCell>
        <mxCell id="K4pyvWRZGne2tPZHGTeG-26" value="return lists" style="verticalAlign=bottom;endArrow=block;shadow=0;strokeWidth=1;exitX=0.419;exitY=0.686;exitDx=0;exitDy=0;exitPerimeter=0;" parent="K4pyvWRZGne2tPZHGTeG-9" edge="1">
          <mxGeometry relative="1" as="geometry">
            <mxPoint x="41.899999999999864" y="300.10000000000014" as="sourcePoint" />
            <mxPoint x="-75" y="300" as="targetPoint" />
          </mxGeometry>
        </mxCell>
        <mxCell id="K4pyvWRZGne2tPZHGTeG-14" value="list of courses" style="verticalAlign=bottom;endArrow=block;shadow=0;strokeWidth=1;exitX=-0.382;exitY=0.689;exitDx=0;exitDy=0;exitPerimeter=0;" parent="1" edge="1">
          <mxGeometry relative="1" as="geometry">
            <mxPoint x="661.1800000000001" y="330.2399999999999" as="sourcePoint" />
            <mxPoint x="170" y="330" as="targetPoint" />
          </mxGeometry>
        </mxCell>
        <mxCell id="K4pyvWRZGne2tPZHGTeG-15" style="edgeStyle=orthogonalEdgeStyle;rounded=0;orthogonalLoop=1;jettySize=auto;html=1;" parent="1" edge="1">
          <mxGeometry relative="1" as="geometry">
            <mxPoint x="670" y="490" as="targetPoint" />
            <mxPoint x="670" y="420" as="sourcePoint" />
            <Array as="points">
              <mxPoint x="670" y="410" />
            </Array>
          </mxGeometry>
        </mxCell>
        <mxCell id="K4pyvWRZGne2tPZHGTeG-16" style="edgeStyle=orthogonalEdgeStyle;rounded=0;orthogonalLoop=1;jettySize=auto;html=1;" parent="1" source="K4pyvWRZGne2tPZHGTeG-10" edge="1">
          <mxGeometry relative="1" as="geometry">
            <mxPoint x="800" y="490" as="targetPoint" />
          </mxGeometry>
        </mxCell>
        <mxCell id="K4pyvWRZGne2tPZHGTeG-20" style="edgeStyle=orthogonalEdgeStyle;rounded=0;orthogonalLoop=1;jettySize=auto;html=1;" parent="1" source="3nuBFxr9cyL0pnOWT2aG-6" edge="1">
          <mxGeometry relative="1" as="geometry">
            <mxPoint x="350" y="510" as="targetPoint" />
          </mxGeometry>
        </mxCell>
        <mxCell id="K4pyvWRZGne2tPZHGTeG-24" value="list my courses" style="verticalAlign=bottom;endArrow=block;shadow=0;strokeWidth=1;" parent="1" edge="1">
          <mxGeometry relative="1" as="geometry">
            <mxPoint x="170" y="360.00000000000034" as="sourcePoint" />
            <mxPoint x="790" y="360" as="targetPoint" />
          </mxGeometry>
        </mxCell>
        <mxCell id="K4pyvWRZGne2tPZHGTeG-25" value="return list of my courses" style="verticalAlign=bottom;endArrow=block;shadow=0;strokeWidth=1;exitX=-0.382;exitY=0.689;exitDx=0;exitDy=0;exitPerimeter=0;" parent="1" edge="1">
          <mxGeometry relative="1" as="geometry">
            <mxPoint x="661.1800000000001" y="390.2399999999998" as="sourcePoint" />
            <mxPoint x="170" y="390" as="targetPoint" />
          </mxGeometry>
        </mxCell>
      </root>
    </mxGraphModel>
  </diagram>
</mxfile>
